<svg width="18" height="18" viewBox="0 0 18 18" fill="none" xmlns="http://www.w3.org/2000/svg">
<path d="M3.9375 2.25V14.625H14.0625V2.25H3.9375ZM3.375 1.125H14.625C14.7742 1.125 14.9173 1.18426 15.0227 1.28975C15.1282 1.39524 15.1875 1.53832 15.1875 1.6875V15.1875C15.1875 15.3367 15.1282 15.4798 15.0227 15.5852C14.9173 15.6907 14.7742 15.75 14.625 15.75H3.375C3.22582 15.75 3.08274 15.6907 2.97725 15.5852C2.87176 15.4798 2.8125 15.3367 2.8125 15.1875V1.6875C2.8125 1.53832 2.87176 1.39524 2.97725 1.28975C3.08274 1.18426 3.22582 1.125 3.375 1.125Z" fill="#24234F"/>
<path d="M1.125 14.625H16.875V15.75H1.125V14.625ZM5.625 3.375H7.875V5.0625H5.625V3.375Z" fill="#24234F"/>
<path d="M6.75 14.625H11.25V13.5C11.25 12.9033 11.0129 12.331 10.591 11.909C10.169 11.4871 9.59674 11.25 9 11.25C8.40326 11.25 7.83097 11.4871 7.40901 11.909C6.98705 12.331 6.75 12.9033 6.75 13.5V14.625ZM9 10.125C9.89511 10.125 10.7536 10.4806 11.3865 11.1135C12.0194 11.7464 12.375 12.6049 12.375 13.5V15.75H5.625V13.5C5.625 12.6049 5.98058 11.7464 6.61351 11.1135C7.24645 10.4806 8.10489 10.125 9 10.125ZM5.625 6.75H7.875V8.4375H5.625V6.75ZM10.125 3.375H12.375V5.0625H10.125V3.375ZM10.125 6.75H12.375V8.4375H10.125V6.75Z" fill="#24234F"/>
</svg>
