<svg width="16" height="15" viewBox="0 0 16 15" fill="none" xmlns="http://www.w3.org/2000/svg">
<g clip-path="url(#clip0_39_137)">
<path d="M8.47876 0.9375C7.18082 0.9375 5.91203 1.32238 4.83283 2.04348C3.75364 2.76458 2.9125 3.7895 2.4158 4.98864C1.9191 6.18778 1.78914 7.50728 2.04236 8.78028C2.29557 10.0533 2.92059 11.2226 3.83837 12.1404C4.75616 13.0582 5.92548 13.6832 7.19848 13.9364C8.47148 14.1896 9.79098 14.0597 10.9901 13.563C12.1893 13.0663 13.2142 12.2251 13.9353 11.1459C14.6564 10.0667 15.0413 8.79794 15.0413 7.5C15.0413 5.75952 14.3499 4.09032 13.1192 2.85961C11.8884 1.6289 10.2192 0.9375 8.47876 0.9375ZM5.19751 6.32812C5.19751 6.09635 5.26624 5.86978 5.39501 5.67707C5.52378 5.48435 5.7068 5.33415 5.92093 5.24545C6.13506 5.15676 6.37069 5.13355 6.59801 5.17877C6.82533 5.22398 7.03414 5.33559 7.19803 5.49948C7.36192 5.66337 7.47353 5.87218 7.51875 6.0995C7.56396 6.32682 7.54076 6.56245 7.45206 6.77658C7.36336 6.99071 7.21316 7.17374 7.02045 7.3025C6.82773 7.43127 6.60116 7.5 6.36939 7.5C6.05859 7.5 5.76052 7.37653 5.54075 7.15677C5.32098 6.937 5.19751 6.63893 5.19751 6.32812ZM11.2913 10.3125H5.66626V9.375H11.2913V10.3125ZM10.5881 7.5C10.3564 7.5 10.1298 7.43127 9.93708 7.3025C9.74436 7.17374 9.59416 6.99071 9.50547 6.77658C9.41677 6.56245 9.39356 6.32682 9.43878 6.0995C9.484 5.87218 9.59561 5.66337 9.7595 5.49948C9.92339 5.33559 10.1322 5.22398 10.3595 5.17877C10.5868 5.13355 10.8225 5.15676 11.0366 5.24545C11.2507 5.33415 11.4337 5.48435 11.5625 5.67707C11.6913 5.86978 11.76 6.09635 11.76 6.32812C11.76 6.63893 11.6365 6.937 11.4168 7.15677C11.197 7.37653 10.8989 7.5 10.5881 7.5Z" fill="#7BCBED"/>
</g>
<defs>
<clipPath id="clip0_39_137">
<rect width="15" height="15" fill="white" transform="translate(0.97876)"/>
</clipPath>
</defs>
</svg>
