<svg width="100" height="117" viewBox="0 0 100 117" fill="none" xmlns="http://www.w3.org/2000/svg">
<path d="M97.8977 80.4816C97.4658 79.9612 97.0417 79.4408 96.6254 78.9386C90.901 72.0148 87.4378 67.836 87.4378 48.2354C87.4378 38.0877 85.0102 29.7614 80.2252 23.5166C76.6969 18.9033 71.9275 15.4037 65.6411 12.8173C65.5602 12.7723 65.488 12.7133 65.4277 12.643C63.1666 5.07124 56.9791 0 50.0006 0C43.0222 0 36.8373 5.07124 34.5762 12.6352C34.5158 12.7029 34.4446 12.7601 34.3654 12.8043C19.6955 18.8435 12.5661 30.4301 12.5661 48.2276C12.5661 67.836 9.10806 72.0148 3.37851 78.9308C2.9622 79.433 2.53808 79.943 2.10615 80.4738C0.990426 81.8193 0.283523 83.4563 0.0691009 85.1911C-0.145322 86.9258 0.141712 88.6857 0.896232 90.2624C2.50165 93.645 5.92324 95.7448 9.8288 95.7448H90.2011C94.0885 95.7448 97.4866 93.6476 99.0973 90.2806C99.855 88.7035 100.145 86.9422 99.9322 85.2055C99.7196 83.4687 99.0136 81.8293 97.8977 80.4816V80.4816ZM50.0006 116.568C53.7606 116.565 57.4496 115.545 60.6764 113.615C63.9033 111.685 66.5476 108.917 68.3289 105.606C68.4129 105.448 68.4543 105.27 68.4493 105.09C68.4442 104.911 68.3928 104.736 68.3001 104.582C68.2074 104.428 68.0766 104.301 67.9202 104.213C67.7638 104.125 67.5873 104.079 67.4078 104.079H32.5987C32.4189 104.078 32.2421 104.124 32.0854 104.212C31.9287 104.3 31.7974 104.427 31.7044 104.581C31.6114 104.735 31.5598 104.91 31.5546 105.09C31.5495 105.269 31.5909 105.447 31.675 105.606C33.4561 108.917 36.1 111.684 39.3263 113.614C42.5527 115.544 46.2411 116.565 50.0006 116.568Z" fill="black"/>
</svg>
