<svg width="1909" height="1408" viewBox="0 0 1909 1408" fill="none" xmlns="http://www.w3.org/2000/svg">
<path d="M1781 803C1781 779.667 1763.33 768 1728 768H640C613.333 768 584.833 775.167 554.5 789.5C524.167 803.833 500.333 821.333 483 842L189 1205C177 1221 171 1234.33 171 1245C171 1268.33 188.667 1280 224 1280H1312C1338.67 1280 1367.33 1272.67 1398 1258C1428.67 1243.33 1452.33 1225.67 1469 1205L1763 842C1775 827.333 1781 814.333 1781 803ZM640 640H1408V480C1408 453.333 1398.67 430.667 1380 412C1361.33 393.333 1338.67 384 1312 384H736C709.333 384 686.667 374.667 668 356C649.333 337.333 640 314.667 640 288V224C640 197.333 630.667 174.667 612 156C593.333 137.333 570.667 128 544 128H224C197.333 128 174.667 137.333 156 156C137.333 174.667 128 197.333 128 224V1077L384 762C413.333 726.667 452 697.5 500 674.5C548 651.5 594.667 640 640 640ZM1909 803C1909 844.333 1893.67 884.333 1863 923L1568 1286C1539.33 1321.33 1500.67 1350.5 1452 1373.5C1403.33 1396.5 1356.67 1408 1312 1408H224C162.667 1408 110 1386 66 1342C22 1298 0 1245.33 0 1184V224C0 162.667 22 110 66 66C110 22 162.667 0 224 0H544C605.333 0 658 22 702 66C746 110 768 162.667 768 224V256H1312C1373.33 256 1426 278 1470 322C1514 366 1536 418.667 1536 480V640H1728C1764 640 1797 648.167 1827 664.5C1857 680.833 1879.33 704.333 1894 735C1904 756.333 1909 779 1909 803Z" fill="black"/>
</svg>
