<svg width="14" height="14" viewBox="0 0 14 14" fill="none" xmlns="http://www.w3.org/2000/svg">
<path fill-rule="evenodd" clip-rule="evenodd" d="M9.52294 8.69108L12.6613 11.8294C12.7716 11.9398 12.8335 12.0895 12.8335 12.2455C12.8334 12.4016 12.7714 12.5512 12.661 12.6615C12.5506 12.7718 12.4009 12.8338 12.2449 12.8337C12.0888 12.8337 11.9392 12.7716 11.8289 12.6612L8.69053 9.52291C7.75236 10.2496 6.57261 10.5915 5.39127 10.4792C4.20993 10.3669 3.11575 9.80876 2.33131 8.91835C1.54687 8.02794 1.13111 6.87213 1.16859 5.68606C1.20608 4.49999 1.694 3.37275 2.5331 2.53365C3.3722 1.69455 4.49944 1.20663 5.68551 1.16914C6.87158 1.13165 8.02739 1.54742 8.9178 2.33186C9.80821 3.1163 10.3663 4.21048 10.4786 5.39182C10.591 6.57316 10.249 7.75291 9.52236 8.69108H9.52294ZM5.83336 9.33333C6.76162 9.33333 7.65186 8.96458 8.30823 8.3082C8.96461 7.65182 9.33336 6.76158 9.33336 5.83333C9.33336 4.90507 8.96461 4.01483 8.30823 3.35845C7.65186 2.70208 6.76162 2.33333 5.83336 2.33333C4.9051 2.33333 4.01486 2.70208 3.35849 3.35845C2.70211 4.01483 2.33336 4.90507 2.33336 5.83333C2.33336 6.76158 2.70211 7.65182 3.35849 8.3082C4.01486 8.96458 4.9051 9.33333 5.83336 9.33333Z" fill="#9998BD"/>
</svg>
