<svg width="16" height="15" viewBox="0 0 16 15" fill="none" xmlns="http://www.w3.org/2000/svg">
<path d="M13.1824 5.62501C12.4949 5.62501 11.9324 5.06251 11.9324 4.37501C11.9324 3.68751 13.1824 1.87501 13.1824 1.87501C13.1824 1.87501 14.4324 3.68751 14.4324 4.37501C14.4324 5.06251 13.8699 5.62501 13.1824 5.62501ZM10.9949 4.37501C10.9949 3.91876 11.2511 3.30626 11.5699 2.71251C10.4449 1.76595 9.02134 1.24789 7.55112 1.25001C4.10112 1.25001 1.30737 4.05001 1.30737 7.50001C1.30737 10.95 4.10112 13.75 7.55112 13.75C11.0074 13.75 13.8074 10.95 13.8074 7.50001C13.8074 7.15626 13.7699 6.81876 13.7199 6.48751C13.5445 6.53472 13.364 6.55991 13.1824 6.56251C11.9761 6.56251 10.9949 5.58126 10.9949 4.37501ZM9.81987 4.61251L10.4824 5.27501L9.81987 5.93751L10.4824 6.60001L9.81987 7.26251L8.49487 5.93751L9.81987 4.61251ZM4.63237 5.27501L5.29487 4.61251L6.61987 5.93751L5.29487 7.26251L4.63237 6.60001L5.29487 5.93751L4.63237 5.27501ZM9.70737 10.625C9.27612 9.88126 8.47612 9.37501 7.55737 9.37501C6.63862 9.37501 5.83862 9.88126 5.40737 10.625H4.35737C4.54487 10.15 4.83237 9.73126 5.19487 9.38126L3.33237 8.31251C3.05112 8.47501 2.70112 8.48751 2.40112 8.31251C2.18957 8.18621 2.03619 7.98177 1.97412 7.74333C1.91205 7.50489 1.94628 7.25161 2.0694 7.0382C2.19252 6.82478 2.39466 6.66837 2.63215 6.60275C2.86963 6.53714 3.1234 6.56758 3.33862 6.68751C3.63862 6.86251 3.80112 7.17501 3.80112 7.49376L6.03862 8.78751C6.49487 8.56251 7.00737 8.43751 7.55737 8.43751C9.01362 8.43751 10.2574 9.34376 10.7574 10.625H9.70737Z" fill="#F3C888"/>
</svg>
