<svg width="16" height="15" viewBox="0 0 16 15" fill="none" xmlns="http://www.w3.org/2000/svg">
<path d="M8.40625 0.234375C4.2631 0.234375 0.90625 3.48633 0.90625 7.5C0.90625 11.5137 4.2631 14.7656 8.40625 14.7656C12.5494 14.7656 15.9062 11.5137 15.9062 7.5C15.9062 3.48633 12.5494 0.234375 8.40625 0.234375ZM10.8256 5.15625C11.3609 5.15625 11.7933 5.5752 11.7933 6.09375C11.7933 6.6123 11.3609 7.03125 10.8256 7.03125C10.2903 7.03125 9.85786 6.6123 9.85786 6.09375C9.85786 5.5752 10.2903 5.15625 10.8256 5.15625ZM5.9869 5.15625C6.52218 5.15625 6.95464 5.5752 6.95464 6.09375C6.95464 6.6123 6.52218 7.03125 5.9869 7.03125C5.45161 7.03125 5.01915 6.6123 5.01915 6.09375C5.01915 5.5752 5.45161 5.15625 5.9869 5.15625ZM11.878 10.1426C11.0161 11.1445 9.75202 11.7188 8.40625 11.7188C7.06048 11.7188 5.79637 11.1445 4.93448 10.1426C4.52319 9.66504 5.26714 9.06738 5.67843 9.54199C6.35585 10.3301 7.34778 10.7783 8.40625 10.7783C9.46472 10.7783 10.4567 10.3271 11.1341 9.54199C11.5393 9.06738 12.2863 9.66504 11.878 10.1426Z" fill="#57BAA8"/>
</svg>
