<svg width="16" height="15" viewBox="0 0 16 15" fill="none" xmlns="http://www.w3.org/2000/svg">
<g clip-path="url(#clip0_39_155)">
<path d="M8.47876 0.9375C7.18082 0.9375 5.91203 1.32238 4.83283 2.04348C3.75364 2.76458 2.9125 3.7895 2.4158 4.98864C1.9191 6.18778 1.78914 7.50728 2.04236 8.78028C2.29557 10.0533 2.92059 11.2226 3.83837 12.1404C4.75616 13.0582 5.92548 13.6832 7.19848 13.9364C8.47148 14.1896 9.79098 14.0597 10.9901 13.563C12.1893 13.0663 13.2142 12.2251 13.9353 11.1459C14.6564 10.0667 15.0413 8.79794 15.0413 7.5C15.0413 5.75952 14.3499 4.09032 13.1192 2.85961C11.8884 1.6289 10.2192 0.9375 8.47876 0.9375ZM5.19751 7.69219L4.53658 7.03125L5.47408 6.09375L4.53658 5.15625L5.19751 4.49531L6.13501 5.43281L7.07251 4.49531L7.73345 5.15625L6.79595 6.09375L7.73345 7.03125L7.07251 7.69219L6.13501 6.75469L5.19751 7.69219ZM8.47876 11.7188C8.20063 11.7188 7.92875 11.6363 7.69749 11.4818C7.46624 11.3272 7.28599 11.1076 7.17956 10.8506C7.07312 10.5937 7.04527 10.3109 7.09953 10.0382C7.15379 9.76537 7.28773 9.5148 7.48439 9.31813C7.68106 9.12146 7.93163 8.98753 8.20442 8.93327C8.4772 8.87901 8.75995 8.90686 9.01691 9.01329C9.27387 9.11973 9.4935 9.29997 9.64802 9.53123C9.80254 9.76249 9.88501 10.0344 9.88501 10.3125C9.88501 10.6855 9.73685 11.0431 9.47313 11.3069C9.20941 11.5706 8.85172 11.7188 8.47876 11.7188ZM12.4209 7.03125L11.76 7.69219L10.8225 6.75469L9.88501 7.69219L9.22408 7.03125L10.1616 6.09375L9.22408 5.15625L9.88501 4.49531L10.8225 5.43281L11.76 4.49531L12.4209 5.15625L11.4834 6.09375L12.4209 7.03125Z" fill="#FFACB2"/>
</g>
<defs>
<clipPath id="clip0_39_155">
<rect width="15" height="15" fill="white" transform="translate(0.97876)"/>
</clipPath>
</defs>
</svg>
